<svg xmlns="http://www.w3.org/2000/svg" viewBox="0 0 90 90"><defs><style>.cls-1{fill:#badefc;}</style></defs><title>snowflake</title><g id="snowflake"><path id="snowflake-2" data-name="snowflake" class="cls-1" d="M80.39,51.6a2.42,2.42,0,0,0-.08-.64,2.48,2.48,0,0,0-3-1.75L63.59,52.88,50,45l13.64-7.88,13.68,3.67a2.48,2.48,0,0,0,3-1.75,2.43,2.43,0,0,0,.08-.64A2.48,2.48,0,0,0,78.56,36l-8.9-2.38,9.08-5.24a2.48,2.48,0,1,0-2.48-4.29l-9.08,5.24c1-3.92,2.38-8.9,2.38-8.9a2.25,2.25,0,0,0,.08-.64,2.47,2.47,0,0,0-4.86-.64L61.11,32.84,47.47,40.71V25l10-10a2.47,2.47,0,1,0-3.5-3.5L47.47,18V7.48a2.47,2.47,0,1,0-4.95,0V18L36,11.44a2.48,2.48,0,0,0-3.5,3.5l10,10V40.71L28.88,32.84,25.21,19.15a2.47,2.47,0,0,0-4.86.64,2.25,2.25,0,0,0,.08.64l2.38,8.9L13.74,24.1a2.48,2.48,0,1,0-2.48,4.29l9.07,5.24L11.44,36A2.48,2.48,0,0,0,9.61,38.4a2.36,2.36,0,0,0,.08.64,2.47,2.47,0,0,0,3,1.75L26.4,37.13,40,45,26.41,52.88,12.72,49.21a2.48,2.48,0,0,0-3,1.75,2.36,2.36,0,0,0-.08.64A2.48,2.48,0,0,0,11.44,54l8.9,2.38-9.08,5.24a2.48,2.48,0,1,0,2.48,4.29l9.08-5.24-2.38,8.9a2.26,2.26,0,0,0-.08.64,2.47,2.47,0,0,0,4.86.64l3.67-13.68,13.65-7.87V65l-10,10a2.48,2.48,0,0,0,3.5,3.5L42.53,72V82.53a2.47,2.47,0,0,0,4.95,0V72L54,78.56a2.47,2.47,0,1,0,3.5-3.5l-10-10V49.29l13.65,7.88,3.66,13.68a2.47,2.47,0,0,0,4.86-.64,2.26,2.26,0,0,0-.08-.64l-2.38-8.89,9.07,5.24a2.48,2.48,0,1,0,2.48-4.29l-9.08-5.24L78.56,54A2.48,2.48,0,0,0,80.39,51.6Z"/></g></svg>